<svg width="1352" height="137" viewBox="0 0 1352 137" fill="none" xmlns="http://www.w3.org/2000/svg">
<path d="M519.104 0.7735L483.372 0.65625C492.667 25.9761 504.014 49.5255 519.104 68.9951L521.542 72.14L519.459 75.5304C509.37 91.9535 499.589 111.941 492.314 131.351H531.351L548.56 101.652L553.352 103.938C557.836 106.078 562.087 108.689 566.042 111.118L566.329 111.295C570.461 113.832 574.287 116.166 578.239 118.022L578.244 118.024C601.572 128.997 625.574 131.938 650.782 131.465V6.43641H618.932L618.732 75.626L618.097 93.9238L611.198 92.1969C582.052 84.9018 561.527 72.0281 547.025 55.9562C532.57 39.9353 524.403 21.0743 519.399 2.25148L519.104 0.7735Z" fill="white"/>
<path d="M519.104 0.7735L483.372 0.65625C492.667 25.9761 504.014 49.5255 519.104 68.9951L521.542 72.14L519.459 75.5304C509.37 91.9535 499.589 111.941 492.314 131.351H531.351L548.56 101.652L553.352 103.938C557.836 106.078 562.087 108.689 566.042 111.118L566.329 111.295C570.461 113.832 574.287 116.166 578.239 118.022L578.244 118.024C601.572 128.997 625.574 131.938 650.782 131.465V6.43641H618.932L618.732 75.626L618.097 93.9238L611.198 92.1969C582.052 84.9018 561.527 72.0281 547.025 55.9562C532.57 39.9353 524.403 21.0743 519.399 2.25148L519.104 0.7735Z" fill="white"/>
<path d="M811.223 0.7735L810.929 2.25148C805.925 21.0743 797.758 39.9353 783.302 55.9562C768.801 72.0281 748.276 84.9018 719.13 92.1969L712.231 93.9238L711.596 75.626L711.395 6.43641H679.546V131.465C704.754 131.938 728.755 128.997 752.084 118.024L752.088 118.022C760.349 114.144 765.233 111.263 776.395 104.258L781.442 101.09L798.977 131.351H838.014C830.738 111.941 820.958 91.9535 810.869 75.5304L808.786 72.14L811.223 68.9951C826.314 49.5255 837.66 25.9761 846.956 0.65625L811.223 0.7735Z" fill="white"/>
<path fill-rule="evenodd" clip-rule="evenodd" d="M1173.12 123.053C1173.12 126.969 1173.31 130.579 1173.77 133.756H1143.65C1143.63 133.323 1143.62 132.841 1143.62 132.307V116.171C1143.62 107.397 1141.85 99.7789 1137.33 94.4143L1137.32 94.3997L1137.3 94.3853C1132.43 88.6754 1124.8 86.5329 1116.17 86.5329H1075.22L1071.13 89.3552V133.847H1041.76V7.51242H1133.37C1147.79 7.51242 1157.55 10.3726 1163.61 15.1335C1169.41 19.6868 1172.68 26.6593 1172.68 37.1314V39.1825C1172.68 43.3103 1172.06 46.8743 1170.9 49.8804L1170.9 49.9018C1169.66 53.16 1168.16 55.5023 1166.53 57.1201L1166.51 57.1398L1166.49 57.1597C1164.46 59.2146 1162.49 60.7374 1160.67 61.8443C1158.79 62.9884 1156.92 63.8403 1155.08 64.4227L1136.95 70.1897L1155.24 75.4346C1160.84 77.0401 1165.1 80.0987 1168.25 84.5992C1171.35 89.0182 1173.12 94.9421 1173.12 102.678V123.053ZM1071.13 29.5554V64.7634H1123.84C1128.8 64.7634 1133.58 63.5752 1137.11 60.1993C1140.69 56.7782 1141.99 52.0641 1141.99 47.1594V46.9771C1141.99 42.0993 1140.67 37.4137 1137.07 34.028C1133.54 30.7052 1128.77 29.5554 1123.84 29.5554H1071.13Z" fill="white"/>
<path fill-rule="evenodd" clip-rule="evenodd" d="M133.548 95.6535C133.548 90.6415 132.833 86.297 131.547 82.639C130.182 78.8879 128.492 76.2689 126.61 74.4827C124.135 72.1346 121.909 70.4116 119.932 69.2228L119.912 69.2107L119.892 69.1985C117.988 68.0324 115.799 67.0768 113.36 66.3284L100.964 60.6828L113.44 55.3053C116.651 54.3709 119.898 52.2269 123.16 48.4231C125.821 45.3206 127.463 40.8154 127.463 34.2089V32.2033C127.463 24.6235 125.03 18.7683 120.326 14.1597C116.045 9.96526 107.937 7.14258 94.2349 7.14258H0.728516V131.335H94.7641C108.881 131.335 118.401 128.208 124.358 122.959C130.176 117.834 133.548 109.833 133.548 97.8414V95.6535ZM29.5265 26.4962V57.146H82.0646C86.3697 57.146 90.6786 56.2208 93.9425 53.3452C97.347 50.3457 98.5766 46.1588 98.5766 41.9123V41.5476C98.5766 37.3315 97.3237 33.1821 93.9034 30.223C90.6433 27.4026 86.3532 26.4962 82.0646 26.4962H29.5265ZM29.5265 76.0894V110.933H84.6221C89.5755 110.933 94.3658 109.79 97.9158 106.471C101.539 103.083 102.854 98.3893 102.854 93.5111V92.9641C102.854 88.1888 101.492 83.5997 97.8141 80.3221C94.2637 77.1581 89.5153 76.0894 84.6221 76.0894H29.5265Z" fill="white"/>
<path fill-rule="evenodd" clip-rule="evenodd" d="M133.548 95.6535C133.548 90.6415 132.833 86.297 131.547 82.639C130.182 78.8879 128.492 76.2689 126.61 74.4827C124.135 72.1346 121.909 70.4116 119.932 69.2228L119.912 69.2107L119.892 69.1985C117.988 68.0324 115.799 67.0768 113.36 66.3284L100.964 60.6828L113.44 55.3053C116.651 54.3709 119.898 52.2269 123.16 48.4231C125.821 45.3206 127.463 40.8154 127.463 34.2089V32.2033C127.463 24.6235 125.03 18.7683 120.326 14.1597C116.045 9.96526 107.937 7.14258 94.2349 7.14258H0.728516V131.335H94.7641C108.881 131.335 118.401 128.208 124.358 122.959C130.176 117.834 133.548 109.833 133.548 97.8414V95.6535ZM29.5265 26.4962V57.146H82.0646C86.3697 57.146 90.6786 56.2208 93.9425 53.3452C97.347 50.3457 98.5766 46.1588 98.5766 41.9123V41.5476C98.5766 37.3315 97.3237 33.1821 93.9034 30.223C90.6433 27.4026 86.3532 26.4962 82.0646 26.4962H29.5265ZM29.5265 76.0894V110.933H84.6221C89.5755 110.933 94.3658 109.79 97.9158 106.471C101.539 103.083 102.854 98.3893 102.854 93.5111V92.9641C102.854 88.1888 101.492 83.5997 97.8141 80.3221C94.2637 77.1581 89.5153 76.0894 84.6221 76.0894H29.5265Z" fill="white"/>
<path d="M348.186 131.38H319.696V7.14258H356.275L426.055 95.0619V7.14258H454.544V131.38H422.795L348.186 38.5119V131.38Z" fill="white"/>
<path d="M348.186 131.38H319.696V7.14258H356.275L426.055 95.0619V7.14258H454.544V131.38H422.795L348.186 38.5119V131.38Z" fill="white"/>
<path fill-rule="evenodd" clip-rule="evenodd" d="M177.991 131.38H149.544L197.328 7.14258H243.699L294.187 131.38H262.574L254.328 109.501H186.06L177.991 131.38ZM245.808 87.0478L219.678 18.1778L194.199 87.0478H245.808Z" fill="white"/>
<path fill-rule="evenodd" clip-rule="evenodd" d="M177.991 131.38H149.544L197.328 7.14258H243.699L294.187 131.38H262.574L254.328 109.501H186.06L177.991 131.38ZM245.808 87.0478L219.678 18.1778L194.199 87.0478H245.808Z" fill="white"/>
<path fill-rule="evenodd" clip-rule="evenodd" d="M975.082 111.601H905.879L897.678 133.845H868.614L917.192 7.55643H964.356L1015.68 133.845H983.416L975.082 111.601ZM963.332 80.8529L966.5 88.6468H957.998H914.149L939.896 19.0998L963.332 80.8529Z" fill="white"/>
<path fill-rule="evenodd" clip-rule="evenodd" d="M1322.82 13.2854L1322.82 13.2896L1322.83 13.2939C1327.64 15.6761 1331.78 18.6131 1335.36 22.0645C1339.04 25.6641 1341.85 29.1745 1343.82 32.5791C1345.88 36.1347 1347.56 40.0551 1348.85 44.3155C1350.18 48.7261 1350.98 52.6249 1351.38 56.0659C1351.79 59.6582 1352 63.4488 1352 67.4414V73.0024C1352 76.9951 1351.79 80.7856 1351.38 84.3779C1350.98 87.83 1350.17 91.7844 1348.84 96.249C1347.54 100.643 1345.88 104.662 1343.87 108.25C1341.94 111.688 1339.18 115.226 1335.43 118.892C1331.8 122.443 1327.65 125.431 1322.87 127.86L1322.85 127.869L1322.83 127.878C1318.13 130.311 1312.13 132.354 1304.63 133.921C1297.22 135.471 1288.93 136.306 1279.66 136.306H1273.18C1263.89 136.306 1255.61 135.513 1248.24 133.928C1240.72 132.313 1234.66 130.264 1229.94 127.865C1225.09 125.38 1220.9 122.388 1217.33 118.905C1213.59 115.21 1210.79 111.668 1208.88 108.25C1206.84 104.625 1205.17 100.662 1203.92 96.3103C1202.61 91.7092 1201.77 87.7941 1201.37 84.3779C1200.96 80.7856 1200.75 76.9951 1200.75 73.0024V67.4414C1200.75 63.4488 1200.96 59.6582 1201.37 56.0659C1201.77 52.6211 1202.57 48.7174 1203.9 44.3006C1205.2 39.967 1206.85 36.0507 1208.85 32.5621L1208.86 32.5497L1208.86 32.5373C1210.79 29.1473 1213.54 25.6616 1217.27 22.0996L1217.28 22.0887L1217.29 22.0778C1220.85 18.6464 1225.07 15.6965 1229.87 13.2939C1234.67 10.915 1240.76 8.8631 1248.21 7.29622L1248.23 7.29291L1248.24 7.28952C1255.57 5.70669 1263.88 4.91229 1273.18 4.91229H1279.7C1288.91 4.91229 1297.13 5.70563 1304.46 7.28952C1311.97 8.91315 1318.09 10.9255 1322.82 13.2854ZM1312.31 43.4896L1312.29 43.4747L1312.28 43.4599C1308.71 39.119 1303.68 35.9843 1297.68 33.7447L1297.66 33.7372L1297.64 33.7299C1291.47 31.4852 1284.34 30.4195 1276.35 30.4195C1268.39 30.4195 1260.99 31.4782 1254.8 33.7299C1248.72 35.9465 1243.73 39.1527 1240.22 43.4954C1237.15 47.297 1234.86 51.352 1233.51 55.7097C1232.22 59.812 1231.58 64.2181 1231.58 68.8089V71.0424C1231.58 75.645 1232.23 80.1043 1233.56 84.3456C1234.94 88.7502 1237.24 92.8869 1240.24 96.8484L1240.25 96.8627L1240.26 96.8769C1243.76 101.441 1248.8 104.809 1254.92 107.176C1261.16 109.59 1268.34 110.708 1276.35 110.708C1284.34 110.708 1291.5 109.643 1297.75 107.282C1303.83 104.98 1308.9 101.719 1312.42 97.1791C1315.49 93.2346 1317.71 89.0964 1319.13 84.7703L1319.14 84.7404L1319.15 84.7103C1320.48 80.469 1321.13 76.0097 1321.13 71.4071V68.8089C1321.13 64.2122 1320.48 59.7739 1319.13 55.6271C1317.72 51.3335 1315.4 47.305 1312.31 43.4896Z" fill="white"/>
<defs>
<linearGradient id="paint0_linear_3877_16680" x1="3106.7" y1="-168.55" x2="351.821" y2="936.487" gradientUnits="userSpaceOnUse">
<stop stop-color="#C68B4A"/>
<stop offset="1" stop-color="#FEE0AE"/>
</linearGradient>
<linearGradient id="paint1_linear_3877_16680" x1="3106.7" y1="-168.55" x2="351.821" y2="936.487" gradientUnits="userSpaceOnUse">
<stop stop-color="#C68B4A"/>
<stop offset="1" stop-color="#FEE0AE"/>
</linearGradient>
<linearGradient id="paint2_linear_3877_16680" x1="3106.7" y1="-168.55" x2="351.821" y2="936.487" gradientUnits="userSpaceOnUse">
<stop stop-color="#C68B4A"/>
<stop offset="1" stop-color="#FEE0AE"/>
</linearGradient>
<linearGradient id="paint3_linear_3877_16680" x1="3106.7" y1="-168.55" x2="351.821" y2="936.487" gradientUnits="userSpaceOnUse">
<stop stop-color="#C68B4A"/>
<stop offset="1" stop-color="#FEE0AE"/>
</linearGradient>
</defs>
</svg>
